*** 30.Days.of.Night_Dark.Days.2010.DVDRiP.XviD.OPTIONAL-MUKTISUB-Zen_Bud ***

Format                           : AVI
File size                        : 700 MiB
Duration                         : 1h 28mn
Overall bit rate                 : 1 104 Kbps
Writing application              : AVI-Mux GUI 1.17.8.3

Video
Format                           : MPEG-4 Visual
Codec ID/Hint                    : XviD
Duration                         : 1h 28mn
Bit rate                         : 972 Kbps
Width                            : 720 pixels
Height                           : 552 pixels
Display aspect ratio             : 1.855
Stream size                      : 616 MiB (88%)
Writing library                  : XviD 1.1.2 (UTC 2006-11-01)

Audio

Format                           : MPEG Audio
Codec ID/Hint                    : MP3
Duration                         : 1h 28mn
Bit rate                         : 128 Kbps
Channel(s)                       : 2 channels
Sampling rate                    : 48.0 KHz
Stream size                      : 81.2 MiB (12%)
Writing library                  : LAME3.98
Language                         : English


Text #1
Language                         : English

Text #2
Language                         : French

Text #3
Language                         : Italian

Text #4
Language                         : Spanish

Text #5
Language                         : Dutch

Text #6
Language                         : Arabic

Text #7
Language                         : Danish

Text #8
Language                         : Finnish

Text #9
Language                         : Hindi

Text #10
Language                         : Norwegian

Text #11
Language                         : Portuguese

Text #12
Language                         : Swedish

After surviving the incidents in Barrow, Alaska, Stella Olemaun relocates to Los Angeles, where she intentionally attracts the attention of the local vampire population in order to avenge the death of her husband, Eben.